<?xml version="1.0" encoding="UTF-8"?>
<svg version="1.1" xmlns="http://www.w3.org/2000/svg" width="1024" height="1024">
<path d="M0 0 C337.92 0 675.84 0 1024 0 C1024 337.92 1024 675.84 1024 1024 C686.08 1024 348.16 1024 0 1024 C0 686.08 0 348.16 0 0 Z " fill="#FEFEFE" transform="translate(0,0)"/>
<path d="M0 0 C2.17175535 0.01068037 4.34267445 0.00005793 6.5144043 -0.01269531 C41.58402911 -0.04960341 67.4262471 10.36611011 94.37182617 32.26074219 C95.01265137 32.78071777 95.65347656 33.30069336 96.3137207 33.83642578 C99.01362256 36.02865378 101.71235117 38.2222725 104.40625 40.421875 C108.7273699 43.9456112 113.09414071 47.40223659 117.49682617 50.82324219 C122.84684214 54.98705552 128.00375898 59.33658343 133.12231445 63.78051758 C137.11565695 67.23052922 141.20007974 70.52944389 145.37182617 73.76074219 C150.85785555 78.01064577 156.15037761 82.4429009 161.39648438 86.98461914 C165.49382425 90.52662282 169.66658432 93.95099863 173.91479492 97.31152344 C176.75302209 99.56315358 179.56462389 101.8455603 182.37182617 104.13574219 C183.27932617 104.87566406 184.18682617 105.61558594 185.12182617 106.37792969 C187.37182617 108.26074219 187.37182617 108.26074219 189.37182617 110.26074219 C189.70182617 94.42074219 190.03182617 78.58074219 190.37182617 62.26074219 C199.61182617 62.26074219 208.85182617 62.26074219 218.37182617 62.26074219 C218.37182617 139.48074219 218.37182617 216.70074219 218.37182617 296.26074219 C209.13182617 296.26074219 199.89182617 296.26074219 190.37182617 296.26074219 C189.87682617 268.54074219 189.87682617 268.54074219 189.37182617 240.26074219 C185.08182617 244.22074219 180.79182617 248.18074219 176.37182617 252.26074219 C170.68432617 256.94824219 170.68432617 256.94824219 167.98510742 259.11621094 C165.37334994 261.25949174 162.86817316 263.48454549 160.37182617 265.76074219 C156.07190827 269.67965471 151.6126307 273.35245088 147.09057617 277.01074219 C144.45034888 279.19575788 141.90452897 281.45245609 139.37182617 283.76074219 C135.15302994 287.60143875 130.79464322 291.21984565 126.36010742 294.80761719 C122.96432853 297.59526312 119.63497345 300.45270236 116.30932617 303.32324219 C111.53966429 307.43433151 106.71378571 311.44763237 101.77416992 315.35449219 C99.24461601 317.36168294 96.7435668 319.40039549 94.24682617 321.44824219 C93.33288086 322.19460938 92.41893555 322.94097656 91.47729492 323.70996094 C89.17582757 325.59380205 86.89147137 327.49715051 84.61010742 329.40527344 C54.72157532 354.25289298 26.69642864 361.08543042 -12.16088867 357.74365234 C-32.21542414 355.63706494 -50.53474622 348.30097625 -66.8840332 336.51123047 C-68.97756533 335.01024061 -71.09115499 333.53971314 -73.20629883 332.06933594 C-78.35926017 328.48392755 -83.49450551 324.87369561 -88.62817383 321.26074219 C-90.10600158 320.22292932 -91.58386425 319.18516617 -93.06176758 318.14746094 C-101.87752698 311.94913472 -110.62967331 305.66651407 -119.35864258 299.34667969 C-123.10432888 296.63604052 -126.86262607 293.94369496 -130.62817383 291.26074219 C-142.99965555 282.43780902 -155.3007451 273.52279398 -167.52148438 264.4921875 C-172.86587004 260.54714461 -178.23693663 256.6414653 -183.62817383 252.76074219 C-191.4058148 247.1603304 -199.13164425 241.4924137 -206.83911133 235.79589844 C-210.02553825 233.44085463 -213.21837833 231.0949649 -216.41723633 228.75683594 C-225.1575302 222.36049751 -233.79857318 215.86144842 -242.32250977 209.17895508 C-247.53030097 205.09765954 -252.79996284 201.12256982 -258.14770508 197.22558594 C-260.85384646 195.08198103 -263.20560537 192.71660362 -265.62817383 190.26074219 C-252.35411194 190.19113485 -239.08009371 190.13787629 -225.80588627 190.10530567 C-219.64168397 190.08967093 -213.47760684 190.06847245 -207.31347656 190.03442383 C-201.36124382 190.00175259 -195.40913124 189.98387269 -189.45681572 189.97611046 C-187.18949938 189.97058092 -184.92218938 189.95978311 -182.65492439 189.94355202 C-179.47146681 189.92167488 -176.28850151 189.9187796 -173.10498047 189.92016602 C-172.17421188 189.90938019 -171.2434433 189.89859436 -170.2844696 189.88748169 C-158.49332285 189.94280018 -150.27233273 194.91323407 -140.62817383 201.26074219 C-139.32855713 202.11539063 -139.32855713 202.11539063 -138.00268555 202.98730469 C-119.6140311 215.11539434 -101.4600289 227.57491332 -83.39233398 240.17431641 C-76.76998831 244.786879 -70.1160863 249.35038495 -63.44067383 253.88574219 C-56.40349573 258.66727013 -49.40243969 263.49504903 -42.44067383 268.38574219 C-33.67123335 274.54445956 -24.85715762 280.6321991 -15.98803711 286.64648438 C-13.5507423 288.313709 -11.13385635 290.00791995 -8.71801758 291.70605469 C-7.1258071 292.80796035 -5.53336737 293.90953486 -3.94067383 295.01074219 C-3.22250488 295.52459473 -2.50433594 296.03844727 -1.7644043 296.56787109 C3.02512579 299.8457443 6.51063365 301.28449575 12.37182617 301.26074219 C16.78901405 299.64074663 19.83893713 297.2063365 23.24682617 294.01074219 C24.55006836 292.80611328 24.55006836 292.80611328 25.87963867 291.57714844 C26.70206055 290.81273437 27.52448242 290.04832031 28.37182617 289.26074219 C32.0812815 285.94926486 35.84861006 282.70489963 39.62963867 279.47558594 C40.83539293 278.4456674 42.0411214 277.41571866 43.24682617 276.38574219 C43.85534424 275.86608887 44.4638623 275.34643555 45.09082031 274.81103516 C48.62806475 271.78181686 52.11575194 268.70925636 55.55932617 265.57324219 C58.82987222 262.60050196 62.17418231 259.77588305 65.62182617 257.01074219 C70.6952554 252.91186999 75.43251799 248.52834231 80.17724609 244.06079102 C84.49010313 240.02172871 88.96993998 236.27148954 93.58276367 232.57714844 C98.00710598 228.90258963 102.17588963 224.96058056 106.37963867 221.03808594 C109.29020492 218.32427759 112.27194609 215.70334463 115.28198242 213.10058594 C118.54867365 210.22467646 121.73905547 207.26558708 124.93920898 204.31616211 C127.81711928 201.66894145 130.72282933 199.063955 133.68432617 196.51074219 C136.82398302 193.79273347 139.7432045 190.91655841 142.64526367 187.94824219 C144.86993711 185.77390072 147.25058899 183.83326494 149.69604492 181.91308594 C152.0133108 179.62822937 153.62977831 176.9971616 155.37182617 174.26074219 C148.42156845 167.73037285 141.42496792 161.3808488 133.98510742 155.40527344 C131.37334994 153.26199263 128.86817316 151.03693889 126.37182617 148.76074219 C122.95443245 145.64615551 119.46660267 142.66887599 115.87182617 139.76074219 C111.40906404 136.15041776 107.14463084 132.3764629 102.90307617 128.51074219 C100.28337807 126.18212166 97.59667307 123.96511272 94.87182617 121.76074219 C90.4061791 118.14808389 86.13898002 114.37180674 81.89526367 110.50292969 C79.32100259 108.21558315 76.67893128 106.04525948 73.99682617 103.88574219 C69.98356333 100.64121702 66.14767233 97.27327036 62.37182617 93.76074219 C57.84057513 89.54926738 53.16574205 85.58240858 48.34838867 81.70214844 C44.81876401 78.80711509 41.37516995 75.82272915 37.93432617 72.82324219 C33.18561092 68.69282091 28.43236683 64.5691462 23.62182617 60.51074219 C22.20643555 59.31191406 22.20643555 59.31191406 20.76245117 58.08886719 C16.6367799 54.93394209 12.41368062 54.6547096 7.37182617 55.26074219 C4.23857401 56.60776189 4.23857401 56.60776189 1.30932617 58.76074219 C0.44863525 59.3449292 0.44863525 59.3449292 -0.42944336 59.94091797 C-2.50951959 61.36170583 -4.56789866 62.81139614 -6.62817383 64.26074219 C-8.44637192 65.51972864 -10.2654404 66.77745868 -12.08520508 68.03417969 C-16.06399088 70.78798294 -20.03466545 73.55296633 -23.99926758 76.32714844 C-28.67351722 79.59731906 -33.36169308 82.84601699 -38.06567383 86.07324219 C-39.02244019 86.73005981 -39.02244019 86.73005981 -39.99853516 87.40014648 C-42.49328094 89.11206376 -44.98896517 90.82261021 -47.48461914 92.53320312 C-58.94569714 100.39137305 -70.36089341 108.3146521 -81.76049805 116.26171875 C-83.61330278 117.55328738 -85.46646772 118.8443395 -87.32006836 120.13476562 C-96.95532206 126.84370333 -106.54091077 133.61215588 -116.046875 140.50317383 C-126.7534535 148.26020999 -137.56782288 155.86375381 -148.44067383 163.38574219 C-149.10470215 163.8473877 -149.76873047 164.3090332 -150.45288086 164.78466797 C-158.77159198 170.51389703 -158.77159198 170.51389703 -164.20928955 170.50125122 C-165.12351685 170.50400055 -166.03774414 170.50674988 -166.97967529 170.50958252 C-167.97517395 170.50239197 -168.97067261 170.49520142 -169.99633789 170.48779297 C-171.57729248 170.48823105 -171.57729248 170.48823105 -173.19018555 170.48867798 C-176.67480698 170.48728436 -180.15921474 170.4717214 -183.64379883 170.45605469 C-186.0594674 170.45232468 -188.47513748 170.44947765 -190.89080811 170.44747925 C-197.24975764 170.43984187 -203.60861585 170.42019237 -209.9675293 170.39807129 C-216.45596074 170.37761519 -222.94440693 170.36847803 -229.43286133 170.35839844 C-242.16467113 170.33694667 -254.89641762 170.30319365 -267.62817383 170.26074219 C-264.80380092 167.41502108 -262.03879482 164.66195299 -258.87036133 162.20214844 C-258.17249512 161.65888916 -257.47462891 161.11562988 -256.75561523 160.5559082 C-256.01230957 159.98412842 -255.26900391 159.41234863 -254.50317383 158.82324219 C-253.71475098 158.21343506 -252.92632812 157.60362793 -252.11401367 156.9753418 C-244.9821169 151.4836826 -237.74145807 146.14516559 -230.47973633 140.82714844 C-225.50023434 137.17665558 -220.56200865 133.47261462 -215.62817383 129.76074219 C-202.31619807 119.75608157 -188.91213549 109.8835152 -175.3972168 100.15478516 C-169.94687221 96.22668387 -164.5313199 92.25346163 -159.12817383 88.26074219 C-150.74879708 82.07048724 -142.31709812 75.9559976 -133.86206055 69.86962891 C-130.86602578 67.71182901 -127.87297232 65.54991577 -124.88012695 63.38769531 C-122.63112074 61.76287123 -120.38160113 60.13875964 -118.13208008 58.51464844 C-115.11724864 56.33745196 -112.10442689 54.15751302 -109.09301758 51.97558594 C-101.10751471 46.19298041 -93.09824514 40.44887865 -85.02685547 34.78662109 C-81.35419577 32.20500612 -77.70613921 29.59564872 -74.08911133 26.93652344 C-50.52274251 9.61554346 -29.92285071 -0.17418429 0 0 Z " fill="#030403" transform="translate(292.628173828125,332.7392578125)"/>
<path d="M0 0 C4.67278786 3.4459708 9.45807985 6.70880224 14.26953125 9.95703125 C20.85608223 14.41791956 27.26143735 19.05238082 33.58642578 23.87524414 C38.66125968 27.71952858 43.87019495 31.33013235 49.14453125 34.89453125 C55.88562701 39.45222665 62.46001316 44.16971826 68.94189453 49.08813477 C74.21320124 53.08685214 79.56958585 56.94835337 84.96484375 60.77734375 C89.89789147 64.2786504 94.79677377 67.8272165 99.69750977 71.37353516 C103.47698748 74.10813357 107.25979348 76.8376054 111.0546875 79.55078125 C120.07257883 86.00917546 128.94747765 92.62924766 137.75048828 99.37768555 C143.56211457 103.82736196 149.42387987 108.19903557 155.33203125 112.51953125 C163.92065754 118.80907317 172.34719456 125.29033277 180.71044922 131.87597656 C182.4643502 133.25306115 184.22624102 134.61889216 185.9921875 135.98046875 C186.90871094 136.69460938 187.82523438 137.40875 188.76953125 138.14453125 C189.53523438 138.7375 190.3009375 139.33046875 191.08984375 139.94140625 C191.60289062 140.4209375 192.1159375 140.90046875 192.64453125 141.39453125 C192.64453125 142.05453125 192.64453125 142.71453125 192.64453125 143.39453125 C179.25741595 143.5105899 165.87042115 143.59933068 152.48290443 143.65359211 C146.26592816 143.6796403 140.04929714 143.71495196 133.83251953 143.77172852 C127.82838949 143.82621732 121.82459069 143.85598771 115.82023239 143.86891747 C113.53417118 143.87812698 111.24812727 143.896111 108.96220779 143.92318153 C105.74996593 143.95969495 102.53907751 143.96446714 99.32666016 143.9621582 C97.92187408 143.98912277 97.92187408 143.98912277 96.4887085 144.01663208 C86.37722612 143.938439 78.88212006 138.90176819 70.95703125 133.08203125 C69.48511315 132.02241138 68.01241261 130.96387782 66.5390625 129.90625 C65.75611816 129.34212402 64.97317383 128.77799805 64.16650391 128.19677734 C59.52640747 124.88088268 54.83184069 121.64315773 50.14453125 118.39453125 C41.28753981 112.24353999 32.46017453 106.0527567 23.65966797 99.82128906 C10.68524459 90.63513323 -2.3270912 81.50396488 -15.35546875 72.39453125 C-24.86697165 65.74409422 -34.37770498 59.0930003 -43.85546875 52.39453125 C-45.93440195 50.92684461 -48.01353163 49.4594369 -50.09277344 47.9921875 C-51.70336738 46.85497054 -53.31332603 45.7168536 -54.92285156 44.578125 C-57.6065725 42.68052486 -60.29327008 40.78720236 -62.98046875 38.89453125 C-63.80998047 38.30671875 -64.63949219 37.71890625 -65.49414062 37.11328125 C-75.90953305 29.35574168 -75.90953305 29.35574168 -88.35546875 28.39453125 C-94.03854745 31.12800151 -98.81464841 35.28178353 -103.48046875 39.45703125 C-104.78865866 40.60983344 -106.09726234 41.76216622 -107.40625 42.9140625 C-108.06189941 43.49365723 -108.71754883 44.07325195 -109.39306641 44.67041016 C-112.45635422 47.36174364 -115.56317131 50.00133277 -118.66796875 52.64453125 C-122.6794464 56.06832604 -126.64204585 59.53182224 -130.54296875 63.08203125 C-133.87773989 66.11165993 -137.28834514 69.00061217 -140.79296875 71.83203125 C-144.59634378 74.90789713 -148.25629527 78.08206291 -151.85546875 81.39453125 C-156.22717338 85.41427661 -160.73333761 89.1944132 -165.3515625 92.92578125 C-170.15451047 96.87306749 -174.82401768 100.97188942 -179.51171875 105.0546875 C-183.21034872 108.27507862 -186.93720443 111.4614912 -190.66796875 114.64453125 C-195.55451101 118.81959948 -200.36822451 123.0640833 -205.12890625 127.3828125 C-207.18651266 129.24187794 -209.26393638 131.07381483 -211.35546875 132.89453125 C-212.30292969 133.72404297 -212.30292969 133.72404297 -213.26953125 134.5703125 C-214.84383443 135.94709075 -216.42276671 137.31857831 -218.00390625 138.6875 C-218.90367187 139.47769531 -219.8034375 140.26789063 -220.73046875 141.08203125 C-221.56320312 141.80777344 -222.3959375 142.53351563 -223.25390625 143.28125 C-225.2551695 145.29367272 -226.17767241 146.86183879 -227.35546875 149.39453125 C-224.35975551 152.41964083 -221.3581207 155.43881 -218.35546875 158.45703125 C-217.51628906 159.30458984 -216.67710937 160.15214844 -215.8125 161.02539062 C-211.38666599 165.46837903 -206.90623549 169.76611361 -202.14697266 173.8503418 C-199.54822787 176.09033372 -197.05348828 178.43106131 -194.54296875 180.76953125 C-189.89023368 185.07390164 -185.07630487 189.10765162 -180.13671875 193.08203125 C-176.58361789 196.03629489 -173.21523195 199.16366549 -169.83374023 202.31079102 C-166.62247825 205.28168753 -163.3291906 208.09414202 -159.91796875 210.83203125 C-155.13925247 214.67563182 -150.66389188 218.76413289 -146.19165039 222.95288086 C-142.84447548 226.0700707 -139.42541852 229.03026923 -135.85546875 231.89453125 C-130.45606295 236.22982058 -125.41496509 240.88904586 -120.35546875 245.609375 C-117.39461719 248.36994452 -114.36821139 251.04534369 -111.3046875 253.69140625 C-108.99944878 255.7056028 -106.7427202 257.76969969 -104.48046875 259.83203125 C-94.17974959 270.05840938 -94.17974959 270.05840938 -80.95556641 273.72460938 C-73.78367183 272.81414914 -67.20586883 267.04762426 -61.48046875 262.89453125 C-59.99566719 261.83210867 -58.50995534 260.77095736 -57.0234375 259.7109375 C-56.25950684 259.1658252 -55.49557617 258.62071289 -54.70849609 258.05908203 C-50.76770514 255.27133429 -46.78141627 252.55096683 -42.79296875 249.83203125 C-41.99673096 249.28885254 -41.20049316 248.74567383 -40.38012695 248.18603516 C-38.79815247 247.10705654 -37.21604203 246.02827723 -35.63378906 244.94970703 C-32.13952632 242.56453197 -28.65324701 240.16780828 -25.16796875 237.76953125 C-24.51441406 237.31980957 -23.86085938 236.87008789 -23.1875 236.40673828 C-21.88377777 235.50961928 -20.58006672 234.61248402 -19.27636719 233.71533203 C-17.38971043 232.41807567 -15.50171959 231.1227862 -13.61328125 229.828125 C-5.7960627 224.46619213 1.99312253 219.06549491 9.76953125 213.64453125 C19.25454599 207.03535479 28.78662678 200.49860641 38.34765625 194 C41.82322851 191.63739903 45.29199386 189.26538348 48.75390625 186.8828125 C83.15491089 163.20878385 83.15491089 163.20878385 101.50537109 163.28100586 C102.96972092 163.28078682 102.96972092 163.28078682 104.46365356 163.28056335 C107.67761488 163.2812578 110.89151761 163.28902828 114.10546875 163.296875 C116.33891773 163.29874084 118.57236712 163.30016396 120.80581665 163.30116272 C126.6747959 163.30497481 132.54375028 163.31479392 138.41271973 163.3258667 C144.4053514 163.33610895 150.3979871 163.34066637 156.390625 163.34570312 C168.14193799 163.35641737 179.89323255 163.37347808 191.64453125 163.39453125 C188.84325448 166.21696402 186.10700322 168.95243147 182.95703125 171.3828125 C181.92557983 172.18235352 181.92557983 172.18235352 180.87329102 172.99804688 C180.13780029 173.56201172 179.40230957 174.12597656 178.64453125 174.70703125 C177.86198975 175.31095703 177.07944824 175.91488281 176.27319336 176.53710938 C173.73367695 178.4940117 171.189524 180.44475771 168.64453125 182.39453125 C167.79133301 183.0498584 166.93813477 183.70518555 166.05908203 184.38037109 C154.46603711 193.28050049 142.77749767 202.03981327 130.98730469 210.67675781 C127.03423013 213.57523974 123.089925 216.48560835 119.14453125 219.39453125 C117.56772464 220.55601172 115.99090171 221.71747004 114.4140625 222.87890625 C111.18021905 225.2615281 107.94873379 227.64730502 104.71875 230.03515625 C96.59633936 236.03663888 88.45047163 241.99702094 80.21875 247.84765625 C76.09563434 250.77995941 71.99497285 253.74314177 67.89453125 256.70703125 C67.13503174 257.25568848 66.37553223 257.8043457 65.59301758 258.36962891 C61.79219836 261.11615657 57.99388072 263.8660652 54.19921875 266.62109375 C43.93981007 274.06250632 33.59201706 281.36848704 23.19433594 288.61523438 C19.77056757 291.0043979 16.35313984 293.40255211 12.93554688 295.80053711 C9.62048812 298.12470926 6.30122702 300.44283469 2.98144531 302.76025391 C0.75894143 304.31452062 -1.45860197 305.87565221 -3.67578125 307.4375 C-16.52998459 316.45056852 -29.01494479 324.28295934 -44.35546875 328.39453125 C-46.12083984 328.8740625 -46.12083984 328.8740625 -47.921875 329.36328125 C-57.8958821 331.57290744 -67.87097711 331.68141944 -78.04296875 331.70703125 C-78.74371521 331.71070709 -79.44446167 331.71438293 -80.16644287 331.71817017 C-92.82921414 331.75279623 -105.36357759 330.93771435 -117.41796875 326.76953125 C-118.174729 326.51083252 -118.93148926 326.25213379 -119.71118164 325.9855957 C-131.47886385 321.75769338 -140.94909357 314.50083832 -150.35546875 306.39453125 C-151.50329285 305.4198501 -152.65176201 304.44592821 -153.80078125 303.47265625 C-159.1159865 298.95703899 -164.3830397 294.40010958 -169.54296875 289.70703125 C-172.8135148 286.73429102 -176.15782489 283.90967211 -179.60546875 281.14453125 C-184.6804997 277.04436501 -189.41938317 272.65951351 -194.1652832 268.19018555 C-197.60621044 264.96728238 -201.10499916 261.89973507 -204.79296875 258.95703125 C-209.35815801 255.30622453 -213.61242977 251.40810192 -217.85546875 247.39453125 C-222.96074335 242.56590977 -228.17051343 238.00157082 -233.6640625 233.61328125 C-237.73554721 230.2568178 -241.57503758 226.66772329 -245.43359375 223.0703125 C-248.67359921 220.1031952 -252.01979773 217.25367784 -255.35546875 214.39453125 C-255.68546875 232.54453125 -256.01546875 250.69453125 -256.35546875 269.39453125 C-265.26546875 269.39453125 -274.17546875 269.39453125 -283.35546875 269.39453125 C-283.35546875 192.17453125 -283.35546875 114.95453125 -283.35546875 35.39453125 C-274.44546875 35.39453125 -265.53546875 35.39453125 -256.35546875 35.39453125 C-256.02546875 49.58453125 -255.69546875 63.77453125 -255.35546875 78.39453125 C-250.40546875 74.10453125 -245.45546875 69.81453125 -240.35546875 65.39453125 C-234.25089141 60.19433574 -228.13960682 55.01608585 -221.91796875 49.95703125 C-217.67154117 46.50178668 -213.50258451 42.96746549 -209.35546875 39.39453125 C-203.43425721 34.29490787 -197.42506757 29.31704815 -191.35546875 24.39453125 C-189.62572599 22.97856805 -187.89657314 21.56188395 -186.16796875 20.14453125 C-185.26046875 19.40332031 -184.35296875 18.66210938 -183.41796875 17.8984375 C-181.16458218 16.05606404 -178.91521603 14.20920098 -176.66796875 12.359375 C-123.29929751 -31.45181266 -58.24622635 -43.06483024 0 0 Z " fill="#030404" transform="translate(811.35546875,359.60546875)"/>
<path d="M0 0 C0.33 0 0.66 0 1 0 C1 18.48 1 36.96 1 56 C-7.58 56 -16.16 56 -25 56 C-25 55.67 -25 55.34 -25 55 C-19.555 54.505 -19.555 54.505 -14 54 C-14 53.67 -14 53.34 -14 53 C-10.04 53 -6.08 53 -2 53 C-2 51.35 -2 49.7 -2 48 C-1.67 48 -1.34 48 -1 48 C-0.67 32.16 -0.34 16.32 0 0 Z " fill="#2E2F2F" transform="translate(554,573)"/>
<path d="M0 0 C0.33 0 0.66 0 1 0 C1.66 2.64 2.32 5.28 3 8 C-5.58 8 -14.16 8 -23 8 C-23 7.67 -23 7.34 -23 7 C-17.555 6.505 -17.555 6.505 -12 6 C-12 5.67 -12 5.34 -12 5 C-8.04 5 -4.08 5 0 5 C0 3.35 0 1.7 0 0 Z " fill="#272727" transform="translate(552,621)"/>
</svg>
